<svg version="1.1" id="Layer_1" xmlns="http://www.w3.org/2000/svg" xmlns:xlink="http://www.w3.org/1999/xlink" x="0px" y="0px"
	 width="100%" viewBox="0 0 960 1024" enable-background="new 0 0 960 1024" xml:space="preserve">
<path fill="#000000" opacity="1.000000" stroke="none" 
	d="
M521.880493,833.936035 
	C523.940491,832.847778 526.082520,832.716553 527.758057,830.738708 
	C521.052124,828.839355 514.493713,829.066223 507.946259,829.644287 
	C497.158997,830.596497 486.373138,831.631042 475.531952,831.082703 
	C468.382874,830.721069 461.257050,829.998474 454.283478,828.238220 
	C450.545288,827.294617 446.986481,825.897278 443.683594,823.901672 
	C437.957581,820.442017 434.662018,815.388550 434.958252,808.658020 
	C435.276825,801.419739 439.399384,796.680786 446.072418,794.086182 
	C456.974670,789.847046 468.301331,790.366760 479.630432,791.186951 
	C491.607666,792.054138 503.585754,792.427185 515.576965,791.643616 
	C517.167053,791.539673 518.728699,790.999207 520.280884,790.177551 
	C510.420166,787.520691 500.493774,786.829834 490.354156,787.721313 
	C477.283142,788.870544 464.213867,790.580444 451.043304,789.316650 
	C449.575287,789.175781 448.074066,788.785095 446.715942,788.209106 
	C442.839142,786.565063 441.935516,783.880859 444.077209,780.175537 
	C446.664856,775.698608 450.823212,772.931274 455.126648,770.295532 
	C468.638611,762.019836 483.641144,759.627747 499.102722,758.818054 
	C515.389465,757.965149 531.702271,757.327698 547.834656,754.677795 
	C551.880737,754.013184 555.987732,753.367249 560.058350,750.555847 
	C553.627197,747.806396 547.334412,747.759521 541.171448,747.768433 
	C527.506042,747.788269 513.964600,749.916565 500.345886,750.716492 
	C480.630829,751.874390 461.047882,750.735352 441.962646,745.156067 
	C435.592682,743.293823 429.367767,740.898743 424.596802,734.687378 
	C430.046295,734.143005 429.894775,730.574219 429.965912,726.883240 
	C430.797028,683.750793 419.735168,644.690002 391.742889,610.934021 
	C374.103333,589.662537 356.294952,568.457886 341.696106,544.853088 
	C329.283905,524.783936 319.937653,503.525635 318.029419,479.733917 
	C316.337036,458.633270 318.716431,437.799652 324.765137,417.513855 
	C339.433716,368.319366 368.958221,330.669769 413.547058,305.165283 
	C428.453644,296.638794 444.531555,291.295837 462.033752,291.505157 
	C462.986206,291.516541 464.054321,291.045074 464.948242,292.350128 
	C463.634857,293.947815 461.621399,293.346466 460.035431,293.649719 
	C430.877533,299.225769 407.403961,314.460144 387.617706,336.025330 
	C363.662659,362.134064 348.309235,392.779297 339.801300,426.989990 
	C329.940369,466.641174 335.393951,503.893158 357.253540,538.658264 
	C363.633392,548.804810 370.747406,558.436951 377.209656,568.507629 
	C379.389374,571.904541 383.068512,571.208679 386.867310,572.898682 
	C381.792938,574.894470 384.118866,577.078064 385.676208,579.221741 
	C395.072632,592.156250 405.157867,604.621582 413.329559,618.399658 
	C425.856537,639.521118 432.663971,662.408630 434.424133,686.937744 
	C435.432739,700.993469 434.591583,714.856323 432.488068,728.724487 
	C431.651001,734.243164 432.803772,735.521362 438.582336,735.680664 
	C444.910217,735.855042 451.243988,735.817871 457.575226,735.867371 
	C460.265442,735.888428 462.785187,735.523865 465.222076,734.077271 
	C467.513611,732.716980 470.404663,731.603577 472.885132,732.647705 
	C480.242920,735.744507 487.742310,734.290405 495.093109,733.563477 
	C507.578705,732.328674 520.063416,732.880249 532.546326,732.627808 
	C536.295654,732.551941 540.363464,733.533569 542.427551,728.000366 
	C543.720520,734.792725 549.030273,733.903564 553.283203,734.985718 
	C557.480774,736.053833 561.614929,737.320068 565.432922,739.459717 
	C568.848083,741.373596 571.685242,743.857788 573.677490,747.264343 
	C578.325012,755.210876 576.354431,760.591675 567.569458,763.380676 
	C556.117554,767.016418 544.179688,766.538757 532.407043,766.977478 
	C515.770996,767.597412 499.080658,767.291077 482.628510,770.347229 
	C471.928131,772.335022 461.897614,776.056335 453.306000,783.658630 
	C460.859558,783.195496 468.414093,782.747681 475.966492,782.266174 
	C494.140320,781.107422 512.256165,781.386353 530.216309,784.719482 
	C534.819397,785.573669 539.313599,787.035889 542.934387,790.191711 
	C545.660400,792.567810 547.765137,795.569458 546.927795,799.363342 
	C546.110229,803.067688 542.629150,803.722412 539.521606,804.330505 
	C531.637817,805.873108 523.623047,805.806274 515.638489,805.939148 
	C499.830353,806.202148 483.951202,805.207825 468.310638,808.406006 
	C462.861725,809.520264 457.358093,810.733887 451.976990,815.379211 
	C462.593140,817.084778 472.072083,817.981873 481.702301,817.479492 
	C500.397156,816.504272 518.995789,816.793884 537.036194,822.709351 
	C538.944458,823.335083 540.586365,823.040955 542.353577,822.443359 
	C547.335205,820.758911 551.200073,822.393250 553.966858,826.683289 
	C556.223389,830.182190 558.171509,833.883728 560.493896,837.335571 
	C563.348633,841.578735 562.460938,845.286926 559.102295,848.552368 
	C542.372986,864.817627 522.789978,875.420776 499.373871,878.247559 
	C475.161896,881.170410 452.410583,875.666077 430.375397,866.149231 
	C429.365326,865.712952 428.069489,865.502869 427.802917,864.010803 
	C428.211426,862.301392 429.880402,862.019653 431.123444,861.344604 
	C448.093872,852.128906 465.990753,845.700195 485.154358,842.705322 
	C497.477386,840.779419 509.766327,838.462402 521.880493,833.936035 
z"/>
<path fill="#000000" opacity="1.000000" stroke="none" 
	d="
M579.829407,652.755737 
	C571.593079,671.226562 567.231506,690.526428 561.957825,709.646301 
	C560.280640,707.365112 560.985229,705.039124 561.224731,702.716858 
	C561.480286,700.240051 561.487061,697.738342 561.711914,695.257385 
	C563.215698,678.668640 565.750366,662.284607 570.533691,646.262573 
	C576.175232,627.365845 586.390015,611.234131 599.092773,596.370544 
	C613.259583,579.793762 627.846436,563.492310 638.601135,544.318420 
	C647.049255,529.256836 651.417725,513.002747 652.746460,495.828278 
	C655.704712,457.591644 645.148926,422.375092 628.617310,388.587677 
	C614.857849,360.466187 597.192200,335.213776 572.478577,315.446472 
	C559.832458,305.331421 545.871277,297.803345 530.031311,293.947937 
	C528.567688,293.591705 526.672424,293.879547 525.037170,291.189209 
	C529.838257,291.452789 534.006592,291.360901 538.073669,291.958435 
	C559.790955,295.149445 578.615540,304.711304 595.194885,318.789886 
	C622.612671,342.072174 641.253845,371.588531 655.179993,404.350494 
	C663.753479,424.519928 669.901550,445.420776 672.105347,467.259247 
	C675.520142,501.098907 667.654846,532.363159 649.461853,561.068298 
	C638.602966,578.201599 625.423950,593.439941 610.805542,607.384216 
	C597.300476,620.266479 587.315430,635.386475 579.829407,652.755737 
z"/>
<path fill="#000000" opacity="1.000000" stroke="none" 
	d="
M229.336029,407.545898 
	C243.139908,412.279907 256.576263,416.881317 270.308685,421.584137 
	C268.904694,424.753876 266.903381,423.953156 265.013184,423.667938 
	C223.150269,417.351624 182.361877,406.648315 141.748627,394.827881 
	C120.618759,388.678040 101.182068,379.191315 81.540825,369.867981 
	C75.664932,367.078796 70.198059,363.508728 65.699799,358.691254 
	C64.147102,357.028351 62.377769,355.360413 63.085258,352.503387 
	C67.307388,351.318390 71.087082,353.216339 74.843132,353.991425 
	C94.742683,358.097870 114.198456,363.932404 133.374588,370.566132 
	C148.393539,375.761749 163.224136,381.552185 177.934509,387.576294 
	C194.831451,394.495758 211.856750,401.059387 229.336029,407.545898 
z"/>
<path fill="#000000" opacity="1.000000" stroke="none" 
	d="
M724.120789,458.060242 
	C748.051697,444.849274 773.455566,436.311768 799.002319,428.134491 
	C832.443359,417.430359 866.388916,408.365845 899.671265,397.136871 
	C904.057983,395.656860 908.707703,394.910919 913.276123,394.036621 
	C915.174805,393.673218 917.260559,393.472717 918.907166,395.087097 
	C918.818542,396.921967 917.238831,397.036896 916.126526,397.493805 
	C880.089661,412.296600 845.031921,429.366028 808.844238,443.818695 
	C779.899658,455.378540 750.492310,465.397278 719.824341,471.454376 
	C715.611694,472.286407 711.419067,473.287506 707.162842,473.935577 
	C705.654846,474.165222 703.941040,474.318939 703.231140,472.635162 
	C702.459534,470.804962 704.079407,469.917206 705.320740,469.171722 
	C711.455994,465.487244 717.638245,461.880981 724.120789,458.060242 
z"/>
<path fill="#000000" opacity="1.000000" stroke="none" 
	d="
M469.564392,592.616333 
	C472.196747,613.584045 472.828827,634.125061 471.546967,654.812073 
	C470.187897,676.745544 466.400208,698.418945 465.227722,720.353699 
	C465.150421,721.799500 465.262451,723.350403 463.499451,725.343018 
	C459.984985,715.911438 461.267426,706.338440 458.867157,697.016663 
	C461.801697,696.310913 462.895081,694.651489 462.931702,691.577881 
	C463.321320,658.854126 460.011047,626.476868 454.085510,594.342468 
	C448.306183,563.000793 439.960449,532.400757 427.190125,503.112579 
	C426.862030,502.360107 426.445007,501.605072 427.507812,500.005432 
	C454.948425,524.837585 464.514191,557.437683 469.564392,592.616333 
z"/>
<path fill="#000000" opacity="1.000000" stroke="none" 
	d="
M337.663940,303.445312 
	C318.025970,293.033722 302.322937,278.491272 288.655304,261.723511 
	C273.513092,243.146744 258.715881,224.286591 243.912628,205.436615 
	C236.891052,196.495575 229.221909,188.256180 220.436111,181.017120 
	C216.590866,177.848846 212.967896,174.351044 210.068039,170.248962 
	C208.891052,168.584030 207.074875,166.996216 208.143860,163.971542 
	C213.540344,164.564484 218.709442,166.100571 223.710541,168.221161 
	C245.360886,177.401443 260.296112,193.849915 272.063354,213.519638 
	C283.939514,233.371490 295.189056,253.607635 309.967529,271.565430 
	C319.219818,282.808197 329.462860,292.959991 341.516235,301.208130 
	C343.845093,302.801819 343.815186,302.845490 345.299683,305.675262 
	C342.272980,306.854370 340.343323,304.431305 337.663940,303.445312 
z"/>
<path fill="#000000" opacity="1.000000" stroke="none" 
	d="
M503.429596,198.452347 
	C497.519226,179.050903 494.832458,159.414703 491.701355,139.869278 
	C489.676361,127.228668 487.186676,114.647331 486.214630,101.862541 
	C485.419128,91.399757 484.803009,80.894417 487.618164,70.599892 
	C488.749176,66.463905 490.217010,62.391834 494.645691,59.718571 
	C498.896118,67.067360 500.487457,74.915337 502.178833,82.626816 
	C505.937469,99.763298 507.136566,117.221718 507.208893,134.709976 
	C507.293671,155.206192 507.617188,175.682007 509.390991,196.105667 
	C509.835724,201.226517 510.911926,206.293427 511.725189,211.380768 
	C511.955261,212.819992 512.687317,214.271393 510.902802,216.198135 
	C506.440002,211.122681 505.722656,204.637604 503.429596,198.452347 
z"/>
<path fill="#000000" opacity="1.000000" stroke="none" 
	d="
M534.900879,558.771912 
	C527.483887,608.298340 527.505859,657.529846 532.209290,706.968628 
	C529.057068,702.318970 528.334717,696.906860 527.151489,691.810242 
	C520.997192,665.300598 517.430725,638.387939 517.950806,611.168152 
	C518.625854,575.841248 524.793762,541.664917 542.606384,510.449860 
	C543.784729,508.384949 544.574707,505.944366 547.201050,504.741669 
	C541.915649,522.388733 537.753723,540.209412 534.900879,558.771912 
z"/>
<path fill="#000000" opacity="1.000000" stroke="none" 
	d="
M670.446045,259.434448 
	C667.534973,262.674713 666.369324,266.920929 662.338379,269.521484 
	C661.204773,265.395721 663.262024,262.609772 664.551331,259.765472 
	C671.074097,245.375504 680.849243,233.136353 690.587585,220.889450 
	C706.456665,200.932587 721.106384,180.162216 733.131287,157.620560 
	C735.873718,152.479630 736.846924,151.367233 740.403564,148.731262 
	C742.408081,149.974792 742.096497,152.086121 742.156860,153.967255 
	C742.695435,170.746353 737.550354,185.708466 727.633667,199.134613 
	C718.479248,211.528870 707.146790,221.852570 695.963318,232.299271 
	C686.951660,240.717239 678.213928,249.366989 670.446045,259.434448 
z"/>
<path fill="#000000" opacity="1.000000" stroke="none" 
	d="
M490.600464,497.277039 
	C481.696442,492.416046 474.638733,493.152374 468.936096,499.496521 
	C472.467773,504.044739 475.664856,508.828949 476.570343,514.812256 
	C477.812164,523.018494 475.852997,528.030823 470.117371,530.432739 
	C464.460449,532.801697 456.420563,530.252258 452.313324,524.782288 
	C447.602875,518.508972 447.932709,511.769684 450.557739,504.865326 
	C451.202118,503.170380 452.115234,501.577606 453.022552,499.693329 
	C444.460938,493.829742 435.454041,497.644318 425.857574,498.672943 
	C429.049896,493.399597 433.329346,491.288422 438.032043,490.308777 
	C444.121002,489.040344 450.353607,488.957794 456.207428,491.470703 
	C459.214294,492.761475 461.642242,492.483795 464.713593,491.364777 
	C476.472076,487.080627 488.246216,485.763153 498.966614,494.217957 
	C501.056427,495.866119 502.642914,494.956848 504.477600,494.337158 
	C513.339478,491.343597 522.514099,491.840912 531.647217,491.921722 
	C532.036316,491.925171 532.421204,492.395020 533.068848,492.817810 
	C531.491516,494.902771 529.326538,494.237213 527.560059,494.181305 
	C520.960022,493.972534 514.704773,495.406250 508.501801,497.469879 
	C505.159790,498.581696 503.931366,500.089813 505.541565,503.678711 
	C507.453735,507.940552 508.502594,512.504700 508.239258,517.268677 
	C508.082245,520.109131 507.162994,522.544800 504.436340,523.810181 
	C501.783173,525.041382 499.556488,523.664307 497.496948,522.208130 
	C491.501678,517.968994 489.162537,510.237640 492.385529,503.701447 
	C493.829498,500.773071 493.403595,499.083832 490.600464,497.277039 
M464.386566,511.159302 
	C463.565552,509.973755 463.128845,508.430176 461.180878,507.937775 
	C458.961151,510.653351 456.407349,513.430664 457.812866,517.378052 
	C458.477295,519.244141 460.580719,518.912170 462.117523,518.118042 
	C464.721191,516.772644 466.294769,514.869507 464.386566,511.159302 
M500.582336,511.010834 
	C499.789246,509.188293 500.039795,506.712158 496.822998,505.695923 
	C496.116302,509.985657 495.706116,513.817993 498.523041,517.506653 
	C501.186371,515.751953 500.637512,513.671143 500.582336,511.010834 
z"/>
<path fill="#000000" opacity="1.000000" stroke="none" 
	d="
M553.896301,318.074402 
	C560.431519,323.432617 566.103333,329.098877 571.015625,335.895203 
	C568.096985,337.154541 566.134827,335.758484 564.335266,334.946777 
	C544.554871,326.024353 523.672974,321.833740 502.192047,319.998138 
	C498.631500,319.693878 494.001831,320.706268 493.141479,315.220428 
	C492.418152,310.608704 495.852051,307.026642 501.077637,304.498016 
	C517.813110,296.399811 531.934448,302.628632 545.629822,311.916321 
	C548.373413,313.776947 550.968445,315.856567 553.896301,318.074402 
z"/>
<path fill="#000000" opacity="1.000000" stroke="none" 
	d="
M584.815308,544.898560 
	C578.979065,552.684448 575.330200,561.445312 569.642334,569.929565 
	C565.381531,563.159424 574.566711,557.602966 569.310791,551.564026 
	C575.247925,547.566406 580.949707,543.727234 587.206482,539.514404 
	C587.195801,541.989380 585.947632,543.247375 584.815308,544.898560 
z"/>
</svg>